/* XPM */

static char * autoscale_xpm[] = {

/* width height ncolors cpp [x_hot y_hot] */

"24 24 3 1 2 22",

/* colors */

" 	s none	m none	c none",

".	s iconColor5	m black	c blue",

"X	s iconColor3	m black	c red",

/* pixels */

"                        ",

"    .                   ",

"   ...                  ",

"  .....                 ",

" .......    X           ",

"   ...      XX          ",

"   ...      XXX         ",

"   ...      X X         ",

"   ...      X X         ",

"   ...     X  X         ",

"   ...     X  X         ",

"   ...     X  XX        ",

"   ...     X   X    X   ",

"   ...    X    X    XX  ",

"   ...    X    X   X X  ",

"   ...    X     X  X X  ",

"   ...    X     X  X X  ",

"   ...    X      X X X  ",

"   ...   X       X X XX ",

" ....... X        X   X ",

"  .....  X            X ",

"   ...  X              X",

"    .                   ",

"                        "};

