/* XPM */

static char * legendaoff_xpm[] = {

/* width height ncolors cpp [x_hot y_hot] */

"24 24 6 1 2 22",

/* colors */

" 	s none	m none	c none",

".	s iconColor2	m white	c white",

"X	s iconColor1	m black	c black",

"o	s iconColor3	m black	c red",

"O	s iconColor5	m black	c blue",

"+	s iconColor8	m black	c magenta",

/* pixels */

"                        ",

"                        ",

"  ....................  ",

"  ....................  ",

"  .............XXX....  ",

"  ..oooooooooo.X.X....  ",

"  ..oooooooooo.X.X....  ",

"  .............XXX....  ",

"  ....................  ",

"  ....................  ",

"  .............XXX....  ",

"  ..OOOOOOOOOO.X.X....  ",

"  ..OOOOOOOOOO.X.X....  ",

"  .............XXX....  ",

"  ....................  ",

"  ....................  ",

"  .............XXX....  ",

"  ..++++++++++.X.X....  ",

"  ..++++++++++.XXX....  ",

"  .............X......  ",

"  ....................  ",

"  ....................  ",

"                        ",

"                        "};

