/* XPM */

static char * Copia (2) di zoom_patt_xpm[] = {

"24 24 3 1",

" 	c None",

".	c #FF0000",

"+	c #0000FF",

"                        ",

" .      +               ",

"...     +               ",

" .      ++              ",

" .     +++              ",

" .     + +              ",

" .     + +              ",

" .     + +              ",

" .     + +              ",

" .     + +              ",

" .    ++  +             ",

" .    ++  +             ",

" .    +   +             ",

" .    +   +             ",

" .    +   +             ",

" .    +   +      ++     ",

" .    +   +     + +     ",

" .    +   +    +   +    ",

" .   ++   +   ++   +    ",

" .  ++    +++++    ++++ ",

"...                     ",

" .  .                .  ",

"   .................... ",

"    .                .  "};

