/* XPM */
static char * zoom_left2_xpm[] = {
"24 24 5 1",
" 	c None",
".	c #000000",
"+	c #808080",
"@	c #FFFFFF",
"#	c #0000FF",
"                        ",
"           ..           ",
"          .+.           ",
"         .@+.           ",
"        .@#+.           ",
"       .@##+.           ",
"      .@###+.........   ",
"     .@####+@@@@@@@@+.  ",
"    .@##############+.  ",
"   .@###############+.  ",
"  .@################+.  ",
" .@#################+.  ",
"  .+################+.  ",
"   .+###############+.  ",
"    .+##############+.  ",
"     .+####++++++++++.  ",
"      .+###+.........   ",
"       .+##+.           ",
"        .+#+.           ",
"         .++.           ",
"          .+.           ",
"           ..           ",
"                        ",
"                        "};
