/* XPM */

static char * zoom[] = {

"24 24 6 1",

" 	c None",

".	c #C0C0C0",

"+	c #0000FF",

"@	c #000000",

"#	c #929292",

"$	c #DBDBDB",

"                        ",

"     +                  ",

"     +                  ",

"     +     @@@@         ",

"     +   #@...$@#       ",

"     ++  @..#...@       ",

"    +++ @........@      ",

"    + +#@......#.@      ",

"    + +#@........@      ",

"    + +#@........@      ",

"    + +  @......@       ",

"    + +  #@$..$@@@      ",

"   ++  + ##@@@@#@@@     ",

"   ++  +  #### ##@@@    ",

"   +   +        ##@@@   ",

"   +   +         ##@@@  ",

"   +   +      ++  ##@@@ ",

"   +   +     + +   ##@# ",

"   +   +    +   +   #   ",

"   +   +    +   +       ",

"  ++   +++ +    ++      ",

"+++      +++      ++++  ",

"                        ",

"                        "};

