/* XPM */
static char * zoom_right2_xpm[] = {
"24 24 6 1",
" 	c None",
".	c #C0C0C0",
"+	c #000000",
"@	c #808080",
"#	c #0000FF",
"$	c #FFFFFF",
"                        ",
"           ++           ",
"           +@+          ",
"           +@@+         ",
"           +@#@+        ",
"           +@##@+       ",
"   +++++++++@###@+      ",
"  +@@@@@@@@@@####@+     ",
"  +@##############@+    ",
"  +@###############@+   ",
"  +@################@+  ",
"  +@#################@+ ",
"  +@#################$+ ",
"  +@################$+  ",
"  +@###############$+   ",
"  +@$$$$$$$$@#####$+    ",
"   +++++++++@####$+     ",
"           +@###$+      ",
"           +@##$+       ",
"           +@#$+        ",
"           +@$+         ",
"           +@+          ",
"           ++           ",
"                        "};
